<svg width="405" height="28" viewBox="0 0 405 28" fill="none" xmlns="http://www.w3.org/2000/svg">
<path d="M316.188 11.666H319.867V7.98633H320.852V9.39258H326.09V10.2363H320.852V11.666H325V16.1426H324.039V15.6504H317.148V16.1426H316.188V11.666ZM324.039 12.5098H317.148V14.8066H324.039V12.5098ZM324.672 16.4121C325.297 17.3574 325.797 18.209 326.172 18.9668L325.281 19.4473C324.891 18.6504 324.418 17.7793 323.863 16.834L324.672 16.4121ZM317.066 16.9629C316.473 18.0332 315.949 18.873 315.496 19.4824L314.688 18.9082C315.195 18.2363 315.715 17.4316 316.246 16.4941L317.066 16.9629ZM319.023 16.4473C319.383 17.2363 319.695 18.0684 319.961 18.9434L319.012 19.2715C318.77 18.4199 318.492 17.5801 318.18 16.752L319.023 16.4473ZM321.824 16.3652C322.199 17.1387 322.539 17.9473 322.844 18.791L321.918 19.1543C321.699 18.4512 321.383 17.6309 320.969 16.6934L321.824 16.3652ZM328.797 10.7285H336.156V13.4941H335.383V13.1426H329.57V13.4941H328.797V10.7285ZM334.879 15.5566V17.7246C334.879 18.0137 334.926 18.2168 335.02 18.334C335.137 18.4668 335.367 18.5332 335.711 18.5332H336.438C336.945 18.5332 337.234 18.3184 337.305 17.8887C337.383 17.4902 337.438 17.0488 337.469 16.5645C337.758 16.6973 338.051 16.8105 338.348 16.9043C338.293 17.3652 338.23 17.7715 338.16 18.123C338.027 18.9512 337.492 19.3652 336.555 19.3652H335.488C334.895 19.3652 334.5 19.248 334.305 19.0137C334.094 18.7949 333.988 18.3848 333.988 17.7832V16.3301H330.766C330.766 17.1582 330.562 17.8262 330.156 18.334C329.547 19.0059 328.555 19.4395 327.18 19.6348C327.094 19.3848 326.965 19.0996 326.793 18.7793C328.043 18.6465 328.922 18.3145 329.43 17.7832C329.734 17.416 329.887 16.9434 329.887 16.3652V15.5566H334.879ZM327.168 13.9277H337.832V15.791H336.895V14.7246H328.105V15.791H327.168V13.9277ZM327.016 9.1582H332.043C331.918 8.83008 331.789 8.51367 331.656 8.20898L332.535 7.96289C332.695 8.35352 332.85 8.75195 332.998 9.1582H338.008V9.95508H327.016V9.1582ZM335.383 11.4785H329.57V12.3926H335.383V11.4785ZM340.902 11.748H341.863V14.8066C344.145 14.1465 346.328 13.2285 348.414 12.0527L348.988 12.8848C346.566 14.1465 344.191 15.1055 341.863 15.7617V17.5254C341.863 18.0254 342.094 18.2754 342.555 18.2754H347.676C348.191 18.2754 348.496 18.0449 348.59 17.584C348.676 17.123 348.746 16.5332 348.801 15.8145C349.129 15.9473 349.461 16.0645 349.797 16.166C349.688 16.9551 349.598 17.5332 349.527 17.9004C349.379 18.7285 348.836 19.1426 347.898 19.1426H342.344C341.383 19.1426 340.902 18.6465 340.902 17.6543V11.748ZM339.156 9.63867H344.471C344.217 9.19727 343.949 8.79102 343.668 8.41992L344.488 7.91602C344.809 8.32227 345.121 8.7793 345.426 9.28711L344.816 9.63867H349.879V11.8066H348.918V10.5293H340.117V11.8066H339.156V9.63867ZM354.121 16.5469L353.131 19.6699H352.311L353.031 16.5469H354.121ZM364.832 18.5215C366.309 17.7051 367.459 16.7559 368.283 15.6738H365.277V14.9121H365.98V9.20508H367.141C367.309 8.81836 367.473 8.40039 367.633 7.95117L368.465 8.18555C368.297 8.55664 368.133 8.89648 367.973 9.20508H369.789V17.9941C369.789 18.877 369.359 19.3223 368.5 19.3301C368.219 19.3301 367.859 19.3301 367.422 19.3301C367.375 19.0332 367.316 18.7441 367.246 18.4629C367.637 18.5098 367.977 18.5332 368.266 18.5332C368.734 18.5332 368.969 18.291 368.969 17.8066V15.9961C368.168 17.2031 367 18.2715 365.465 19.2012C365.246 18.9277 365.035 18.7012 364.832 18.5215ZM370.117 10.9043H372.355V8.0918H373.176V10.9043H374.277V11.6895H373.176V17.9941C373.176 18.877 372.734 19.3223 371.852 19.3301C371.594 19.3301 371.242 19.3301 370.797 19.3301C370.75 19.0254 370.691 18.7285 370.621 18.4395C370.98 18.4863 371.301 18.5098 371.582 18.5098C372.098 18.5098 372.355 18.2676 372.355 17.7832V11.6895H370.117V10.9043ZM365.875 16.1191C365.883 16.4473 365.91 16.7637 365.957 17.0684C365.129 17.5996 364.445 18.0723 363.906 18.4863L363.367 17.7832C363.625 17.5332 363.754 17.1973 363.754 16.7754V12.8145H362.664V12.0176H364.574V17.0098C365.004 16.7285 365.438 16.4316 365.875 16.1191ZM366.801 14.9121H368.969V13.7402H366.801V14.9121ZM366.801 13.0137H368.969V11.8535H366.801V13.0137ZM368.969 9.9668H366.801V11.127H368.969V9.9668ZM364.023 8.25586C364.688 9.13867 365.16 9.80273 365.441 10.248L364.598 10.7988C364.254 10.1738 363.809 9.48242 363.262 8.72461L364.023 8.25586ZM370.902 12.6035C371.238 13.3379 371.582 14.1738 371.934 15.1113L371.125 15.4746C370.812 14.5371 370.496 13.6816 370.176 12.9082L370.902 12.6035ZM376.832 18.5215C378.309 17.7051 379.459 16.7559 380.283 15.6738H377.277V14.9121H377.98V9.20508H379.141C379.309 8.81836 379.473 8.40039 379.633 7.95117L380.465 8.18555C380.297 8.55664 380.133 8.89648 379.973 9.20508H381.789V17.9941C381.789 18.877 381.359 19.3223 380.5 19.3301C380.219 19.3301 379.859 19.3301 379.422 19.3301C379.375 19.0332 379.316 18.7441 379.246 18.4629C379.637 18.5098 379.977 18.5332 380.266 18.5332C380.734 18.5332 380.969 18.291 380.969 17.8066V15.9961C380.168 17.2031 379 18.2715 377.465 19.2012C377.246 18.9277 377.035 18.7012 376.832 18.5215ZM382.117 10.9043H384.355V8.0918H385.176V10.9043H386.277V11.6895H385.176V17.9941C385.176 18.877 384.734 19.3223 383.852 19.3301C383.594 19.3301 383.242 19.3301 382.797 19.3301C382.75 19.0254 382.691 18.7285 382.621 18.4395C382.98 18.4863 383.301 18.5098 383.582 18.5098C384.098 18.5098 384.355 18.2676 384.355 17.7832V11.6895H382.117V10.9043ZM377.875 16.1191C377.883 16.4473 377.91 16.7637 377.957 17.0684C377.129 17.5996 376.445 18.0723 375.906 18.4863L375.367 17.7832C375.625 17.5332 375.754 17.1973 375.754 16.7754V12.8145H374.664V12.0176H376.574V17.0098C377.004 16.7285 377.438 16.4316 377.875 16.1191ZM378.801 14.9121H380.969V13.7402H378.801V14.9121ZM378.801 13.0137H380.969V11.8535H378.801V13.0137ZM380.969 9.9668H378.801V11.127H380.969V9.9668ZM376.023 8.25586C376.688 9.13867 377.16 9.80273 377.441 10.248L376.598 10.7988C376.254 10.1738 375.809 9.48242 375.262 8.72461L376.023 8.25586ZM382.902 12.6035C383.238 13.3379 383.582 14.1738 383.934 15.1113L383.125 15.4746C382.812 14.5371 382.496 13.6816 382.176 12.9082L382.902 12.6035ZM390.074 8.92969L389.945 15.4219H389.02L388.891 8.92969H390.074ZM389.5 16.6582C389.707 16.6582 389.885 16.7305 390.033 16.875C390.182 17.0195 390.256 17.1953 390.256 17.4023C390.256 17.6133 390.182 17.791 390.033 17.9355C389.885 18.0762 389.707 18.1465 389.5 18.1465C389.293 18.1465 389.115 18.0762 388.967 17.9355C388.818 17.791 388.744 17.6133 388.744 17.4023C388.744 17.1953 388.818 17.0195 388.967 16.875C389.115 16.7305 389.293 16.6582 389.5 16.6582Z" fill="black" fill-opacity="0.85"/>
<path d="M264.945 13.3984H274.992L273.953 12.3828V11.1328L276.648 13.9375V13.9688L273.953 16.7734V15.5234L274.977 14.5312H264.945V13.3984Z" fill="black" fill-opacity="0.65"/>
<rect width="255" height="28" rx="14" fill="#F1F3F4"/>
<path d="M239.001 9.61813L239 9.6184L238.241 11.9551L238.241 11.9555C238.175 12.1562 238.048 12.331 237.877 12.4549C237.707 12.5789 237.501 12.6456 237.29 12.6455C237.29 12.6455 237.29 12.6455 237.29 12.6455L234.833 12.6455L234.833 12.6461L236.821 14.09L236.821 14.0901C236.992 14.2143 237.119 14.3893 237.184 14.5901C237.249 14.7909 237.249 15.0072 237.184 15.208C237.184 15.208 237.184 15.2081 237.184 15.2081L236.425 17.5446L238.413 16.1011L238.413 16.101L238.707 16.5055C238.792 16.4434 238.895 16.41 239.001 16.41C239.106 16.41 239.209 16.4434 239.295 16.5055L239.001 9.61813ZM239.001 9.61813L239.76 11.9551L239.76 11.9555C239.826 12.156 239.953 12.3307 240.123 12.4546C240.294 12.5786 240.499 12.6454 240.71 12.6455H240.711H243.168L243.168 12.6463L241.18 14.09L241.18 14.0901C241.009 14.2143 240.882 14.3893 240.817 14.5901C240.752 14.791 240.752 15.0073 240.817 15.2081L241.576 17.5446L239.589 16.1011L239.001 9.61813ZM239 9.61793L239.001 9.61806L239 9.61805L239 9.61793Z" stroke="#656562" stroke-linecap="round" stroke-linejoin="round"/>
<path d="M31.8066 17.2324C32.1035 17.2324 32.3535 17.1875 32.5566 17.0977C32.7637 17.0078 32.9297 16.8711 33.0547 16.6875C33.1836 16.5039 33.2773 16.2754 33.3359 16.002C33.3984 15.7246 33.4336 15.4023 33.4414 15.0352V14.7949C33.4414 14.4004 33.4141 14.0508 33.3594 13.7461C33.3086 13.4375 33.2188 13.1797 33.0898 12.9727C32.9648 12.7617 32.7969 12.6035 32.5859 12.498C32.375 12.3887 32.1113 12.334 31.7949 12.334C31.2676 12.334 30.8789 12.5469 30.6289 12.9727C30.3828 13.3984 30.2598 14.0098 30.2598 14.8066C30.2598 15.623 30.3828 16.2324 30.6289 16.6348C30.8789 17.0332 31.2715 17.2324 31.8066 17.2324ZM31.6016 18.1172C31.2383 18.1172 30.9062 18.0469 30.6055 17.9062C30.3047 17.7656 30.0469 17.5566 29.832 17.2793C29.6172 16.998 29.4512 16.6504 29.334 16.2363C29.2168 15.8223 29.1582 15.3418 29.1582 14.7949C29.1582 14.2441 29.2168 13.7617 29.334 13.3477C29.4512 12.9297 29.6172 12.5801 29.832 12.2988C30.0469 12.0176 30.3047 11.8066 30.6055 11.666C30.9062 11.5215 31.2383 11.4492 31.6016 11.4492C31.832 11.4492 32.041 11.4766 32.2285 11.5312C32.416 11.582 32.584 11.6523 32.7324 11.7422C32.8809 11.8281 33.0137 11.9316 33.1309 12.0527C33.248 12.1699 33.3516 12.2969 33.4414 12.4336H33.4883L33.6465 11.5664H34.5078V20.8828H33.4414V18.1348C33.4414 18.0605 33.4453 17.9668 33.4531 17.8535C33.4609 17.7402 33.4688 17.6309 33.4766 17.5254C33.4883 17.4004 33.5 17.2715 33.5117 17.1387H33.4414C33.3555 17.2715 33.2539 17.3984 33.1367 17.5195C33.0234 17.6367 32.8906 17.7402 32.7383 17.8301C32.5898 17.9199 32.4219 17.9902 32.2344 18.041C32.0469 18.0918 31.8359 18.1172 31.6016 18.1172ZM41.4336 18L40.4492 14.3906C40.4336 14.3203 40.4141 14.2422 40.3906 14.1562C40.3672 14.0664 40.3438 13.9727 40.3203 13.875C40.2969 13.7773 40.2715 13.6777 40.2441 13.5762C40.2207 13.4746 40.1973 13.375 40.1738 13.2773C40.1191 13.0508 40.0625 12.8164 40.0039 12.5742H39.9688C39.9141 12.8203 39.8613 13.0566 39.8105 13.2832C39.7676 13.4785 39.7207 13.6797 39.6699 13.8867C39.623 14.0938 39.5781 14.2695 39.5352 14.4141L38.5273 18H37.291L35.6445 11.5664H36.7637L37.5312 14.9883C37.5703 15.1641 37.6094 15.3555 37.6484 15.5625C37.6875 15.7656 37.7246 15.9688 37.7598 16.1719C37.7949 16.3711 37.8262 16.5605 37.8535 16.7402C37.8809 16.916 37.9023 17.0605 37.918 17.1738H37.9531C37.9727 17.0723 37.998 16.9375 38.0293 16.7695C38.0645 16.5977 38.1016 16.418 38.1406 16.2305C38.1836 16.0391 38.2266 15.8516 38.2695 15.668C38.3125 15.4805 38.3535 15.3223 38.3926 15.1934L39.4414 11.5664H40.5898L41.5977 15.1934C41.6328 15.3262 41.6719 15.4824 41.7148 15.6621C41.7617 15.8418 41.8066 16.0254 41.8496 16.2129C41.8926 16.3965 41.9316 16.5742 41.9668 16.7461C42.002 16.918 42.0273 17.0605 42.043 17.1738H42.0781C42.0898 17.0723 42.1074 16.9375 42.1309 16.7695C42.1582 16.5977 42.1895 16.4102 42.2246 16.207C42.2598 16.0039 42.2969 15.7969 42.3359 15.5859C42.3789 15.3711 42.4219 15.1719 42.4648 14.9883L43.2676 11.5664H44.3574L42.6934 18H41.4336ZM48.043 18.1172C47.6133 18.1172 47.2207 18.0449 46.8652 17.9004C46.5098 17.7559 46.2031 17.5449 45.9453 17.2676C45.6914 16.9902 45.4941 16.6465 45.3535 16.2363C45.2129 15.8262 45.1426 15.3574 45.1426 14.8301C45.1426 14.2988 45.207 13.8242 45.3359 13.4062C45.4648 12.9883 45.6465 12.6348 45.8809 12.3457C46.1152 12.0527 46.3945 11.8301 46.7188 11.6777C47.0469 11.5254 47.4082 11.4492 47.8027 11.4492C48.1895 11.4492 48.5371 11.5195 48.8457 11.6602C49.1543 11.7969 49.416 11.9922 49.6309 12.2461C49.8457 12.4961 50.0098 12.7988 50.123 13.1543C50.2402 13.5059 50.2988 13.8965 50.2988 14.3262V14.9883H46.2441C46.2637 15.7422 46.4219 16.2969 46.7188 16.6523C47.0195 17.0078 47.4648 17.1855 48.0547 17.1855C48.2539 17.1855 48.4375 17.1758 48.6055 17.1562C48.7773 17.1367 48.9414 17.1094 49.0977 17.0742C49.2578 17.0352 49.4121 16.9883 49.5605 16.9336C49.709 16.875 49.8594 16.8105 50.0117 16.7402V17.6895C49.8555 17.7637 49.7012 17.8281 49.5488 17.8828C49.4004 17.9375 49.2461 17.9824 49.0859 18.0176C48.9297 18.0527 48.7656 18.0781 48.5938 18.0938C48.4258 18.1094 48.2422 18.1172 48.043 18.1172ZM47.7793 12.334C47.334 12.334 46.9805 12.4863 46.7188 12.791C46.4609 13.0957 46.3105 13.5391 46.2676 14.1211H49.1504C49.1504 13.8555 49.123 13.6133 49.0684 13.3945C49.0176 13.1719 48.9355 12.9824 48.8223 12.8262C48.7129 12.6699 48.5723 12.5488 48.4004 12.4629C48.2285 12.377 48.0215 12.334 47.7793 12.334ZM54.7051 11.4492C54.8184 11.4492 54.9453 11.4551 55.0859 11.4668C55.2266 11.4746 55.3477 11.4883 55.4492 11.5078L55.3086 12.4922C55.1992 12.4727 55.0859 12.457 54.9688 12.4453C54.8555 12.4297 54.748 12.4219 54.6465 12.4219C54.4004 12.4219 54.1758 12.4727 53.9727 12.5742C53.7695 12.6719 53.5938 12.8145 53.4453 13.002C53.3008 13.1855 53.1875 13.4082 53.1055 13.6699C53.0273 13.9277 52.9883 14.2148 52.9883 14.5312V18H51.9219V11.5664H52.7891L52.918 12.7441H52.9648C53.0625 12.5762 53.166 12.4141 53.2754 12.2578C53.3887 12.1016 53.5137 11.9648 53.6504 11.8477C53.791 11.7266 53.9473 11.6309 54.1191 11.5605C54.291 11.4863 54.4863 11.4492 54.7051 11.4492ZM58.6602 17.2441C58.7305 17.2441 58.8086 17.2402 58.8945 17.2324C58.9844 17.2246 59.0703 17.2148 59.1523 17.2031C59.2344 17.1914 59.3086 17.1777 59.375 17.1621C59.4453 17.1465 59.498 17.1328 59.5332 17.1211V17.9297C59.4824 17.9531 59.418 17.9766 59.3398 18C59.2617 18.0234 59.1758 18.043 59.082 18.0586C58.9883 18.0781 58.8906 18.0918 58.7891 18.0996C58.6875 18.1113 58.5879 18.1172 58.4902 18.1172C58.248 18.1172 58.0234 18.0859 57.8164 18.0234C57.6094 17.9609 57.4297 17.8535 57.2773 17.7012C57.1289 17.5488 57.0117 17.3438 56.9258 17.0859C56.8398 16.8242 56.7969 16.4961 56.7969 16.1016V12.3691H55.8887V11.8945L56.7969 11.4375L57.2539 10.0898H57.8691V11.5664H59.4863V12.3691H57.8691V16.1016C57.8691 16.4805 57.9297 16.7656 58.0508 16.957C58.1758 17.1484 58.3789 17.2441 58.6602 17.2441ZM59.8203 11.5664H60.9277L62.1875 15.1582C62.2422 15.3145 62.2969 15.4785 62.3516 15.6504C62.4102 15.8223 62.4629 15.9941 62.5098 16.166C62.5605 16.3379 62.6035 16.5039 62.6387 16.6641C62.6738 16.8242 62.6992 16.9727 62.7148 17.1094H62.75C62.7695 17.0117 62.8008 16.8789 62.8438 16.7109C62.8867 16.543 62.9336 16.3652 62.9844 16.1777C63.0391 15.9863 63.0938 15.7988 63.1484 15.6152C63.207 15.4316 63.2578 15.2754 63.3008 15.1465L64.4668 11.5664H65.5684L63.0254 18.8379C62.916 19.1543 62.7969 19.4375 62.668 19.6875C62.543 19.9414 62.3965 20.1562 62.2285 20.332C62.0605 20.5078 61.8633 20.6426 61.6367 20.7363C61.4102 20.834 61.1406 20.8828 60.8281 20.8828C60.625 20.8828 60.4492 20.8711 60.3008 20.8477C60.1523 20.8281 60.0254 20.8066 59.9199 20.7832V19.9336C60.002 19.9531 60.1055 19.9688 60.2305 19.9805C60.3555 19.9961 60.4863 20.0039 60.623 20.0039C60.8105 20.0039 60.9727 19.9805 61.1094 19.9336C61.2461 19.8906 61.3652 19.8262 61.4668 19.7402C61.5684 19.6543 61.6543 19.5488 61.7246 19.4238C61.7988 19.2988 61.8652 19.1562 61.9238 18.9961L62.2578 18.0586L59.8203 11.5664ZM66.4941 17.3496C66.4941 17.2012 66.5137 17.0762 66.5527 16.9746C66.5918 16.8691 66.6445 16.7852 66.7109 16.7227C66.7773 16.6562 66.8555 16.6094 66.9453 16.582C67.0352 16.5508 67.1328 16.5352 67.2383 16.5352C67.3398 16.5352 67.4355 16.5508 67.5254 16.582C67.6191 16.6094 67.6992 16.6562 67.7656 16.7227C67.832 16.7852 67.8848 16.8691 67.9238 16.9746C67.9629 17.0762 67.9824 17.2012 67.9824 17.3496C67.9824 17.4941 67.9629 17.6191 67.9238 17.7246C67.8848 17.8262 67.832 17.9102 67.7656 17.9766C67.6992 18.043 67.6191 18.0918 67.5254 18.123C67.4355 18.1543 67.3398 18.1699 67.2383 18.1699C67.1328 18.1699 67.0352 18.1543 66.9453 18.123C66.8555 18.0918 66.7773 18.043 66.7109 17.9766C66.6445 17.9102 66.5918 17.8262 66.5527 17.7246C66.5137 17.6191 66.4941 17.4941 66.4941 17.3496ZM70.8594 14.6777L71.6504 13.6816L73.3672 11.5664H74.6035L72.2539 14.3496L74.7617 18H73.5371L71.5684 15.0469L70.9297 15.5273V18H69.875V8.88281H70.9297V13.0664L70.8359 14.6777H70.8594ZM79.4551 18L79.2383 17.1094H79.1914C79.0625 17.2852 78.9336 17.4375 78.8047 17.5664C78.6758 17.6914 78.5352 17.7949 78.3828 17.877C78.2305 17.959 78.0605 18.0195 77.873 18.0586C77.6855 18.0977 77.4688 18.1172 77.2227 18.1172C76.9531 18.1172 76.7051 18.0781 76.4785 18C76.252 17.9258 76.0547 17.8105 75.8867 17.6543C75.7227 17.4941 75.5938 17.2949 75.5 17.0566C75.4062 16.8145 75.3594 16.5293 75.3594 16.2012C75.3594 15.5605 75.584 15.0684 76.0332 14.7246C76.4863 14.3809 77.1738 14.1934 78.0957 14.1621L79.1738 14.1211V13.7168C79.1738 13.4551 79.1445 13.2363 79.0859 13.0605C79.0312 12.8848 78.9492 12.7441 78.8398 12.6387C78.7344 12.5293 78.6016 12.4512 78.4414 12.4043C78.2852 12.3574 78.1055 12.334 77.9023 12.334C77.5781 12.334 77.2754 12.3809 76.9941 12.4746C76.7168 12.5684 76.4492 12.6816 76.1914 12.8145L75.8164 12.0117C76.1055 11.8555 76.4277 11.7227 76.7832 11.6133C77.1387 11.5039 77.5117 11.4492 77.9023 11.4492C78.3008 11.4492 78.6445 11.4902 78.9336 11.5723C79.2266 11.6504 79.4668 11.7773 79.6543 11.9531C79.8457 12.125 79.9883 12.3457 80.082 12.6152C80.1758 12.8848 80.2227 13.2109 80.2227 13.5938V18H79.4551ZM77.498 17.2559C77.7363 17.2559 77.957 17.2188 78.1602 17.1445C78.3633 17.0703 78.5391 16.959 78.6875 16.8105C78.8359 16.6582 78.9512 16.4688 79.0332 16.2422C79.1191 16.0117 79.1621 15.7422 79.1621 15.4336V14.8535L78.3242 14.8945C77.9727 14.9102 77.6777 14.9492 77.4395 15.0117C77.2012 15.0742 77.0098 15.1621 76.8652 15.2754C76.7246 15.3848 76.623 15.5195 76.5605 15.6797C76.498 15.8359 76.4668 16.0137 76.4668 16.2129C76.4668 16.5723 76.5605 16.8359 76.748 17.0039C76.9395 17.1719 77.1895 17.2559 77.498 17.2559ZM83.2695 18H82.2031V11.5664H83.2695V18ZM82.1211 9.82617C82.1211 9.5918 82.1797 9.42188 82.2969 9.31641C82.418 9.21094 82.5664 9.1582 82.7422 9.1582C82.8281 9.1582 82.9082 9.17188 82.9824 9.19922C83.0605 9.22266 83.127 9.26172 83.1816 9.31641C83.2402 9.37109 83.2852 9.44141 83.3164 9.52734C83.3516 9.60938 83.3691 9.70898 83.3691 9.82617C83.3691 10.0527 83.3066 10.2227 83.1816 10.3359C83.0605 10.4453 82.9141 10.5 82.7422 10.5C82.5664 10.5 82.418 10.4453 82.2969 10.3359C82.1797 10.2266 82.1211 10.0566 82.1211 9.82617ZM84.3477 11.5664H85.4551L86.7148 15.1582C86.7695 15.3145 86.8242 15.4785 86.8789 15.6504C86.9375 15.8223 86.9902 15.9941 87.0371 16.166C87.0879 16.3379 87.1309 16.5039 87.166 16.6641C87.2012 16.8242 87.2266 16.9727 87.2422 17.1094H87.2773C87.2969 17.0117 87.3281 16.8789 87.3711 16.7109C87.4141 16.543 87.4609 16.3652 87.5117 16.1777C87.5664 15.9863 87.6211 15.7988 87.6758 15.6152C87.7344 15.4316 87.7852 15.2754 87.8281 15.1465L88.9941 11.5664H90.0957L87.5527 18.8379C87.4434 19.1543 87.3242 19.4375 87.1953 19.6875C87.0703 19.9414 86.9238 20.1562 86.7559 20.332C86.5879 20.5078 86.3906 20.6426 86.1641 20.7363C85.9375 20.834 85.668 20.8828 85.3555 20.8828C85.1523 20.8828 84.9766 20.8711 84.8281 20.8477C84.6797 20.8281 84.5527 20.8066 84.4473 20.7832V19.9336C84.5293 19.9531 84.6328 19.9688 84.7578 19.9805C84.8828 19.9961 85.0137 20.0039 85.1504 20.0039C85.3379 20.0039 85.5 19.9805 85.6367 19.9336C85.7734 19.8906 85.8926 19.8262 85.9941 19.7402C86.0957 19.6543 86.1816 19.5488 86.252 19.4238C86.3262 19.2988 86.3926 19.1562 86.4512 18.9961L86.7852 18.0586L84.3477 11.5664ZM92.2461 18H91.1797V11.5664H92.2461V18ZM91.0977 9.82617C91.0977 9.5918 91.1562 9.42188 91.2734 9.31641C91.3945 9.21094 91.543 9.1582 91.7188 9.1582C91.8047 9.1582 91.8848 9.17188 91.959 9.19922C92.0371 9.22266 92.1035 9.26172 92.1582 9.31641C92.2168 9.37109 92.2617 9.44141 92.293 9.52734C92.3281 9.60938 92.3457 9.70898 92.3457 9.82617C92.3457 10.0527 92.2832 10.2227 92.1582 10.3359C92.0371 10.4453 91.8906 10.5 91.7188 10.5C91.543 10.5 91.3945 10.4453 91.2734 10.3359C91.1562 10.2266 91.0977 10.0566 91.0977 9.82617ZM94.127 17.3496C94.127 17.2012 94.1465 17.0762 94.1855 16.9746C94.2246 16.8691 94.2773 16.7852 94.3438 16.7227C94.4102 16.6562 94.4883 16.6094 94.5781 16.582C94.668 16.5508 94.7656 16.5352 94.8711 16.5352C94.9727 16.5352 95.0684 16.5508 95.1582 16.582C95.252 16.6094 95.332 16.6562 95.3984 16.7227C95.4648 16.7852 95.5176 16.8691 95.5566 16.9746C95.5957 17.0762 95.6152 17.2012 95.6152 17.3496C95.6152 17.4941 95.5957 17.6191 95.5566 17.7246C95.5176 17.8262 95.4648 17.9102 95.3984 17.9766C95.332 18.043 95.252 18.0918 95.1582 18.123C95.0684 18.1543 94.9727 18.1699 94.8711 18.1699C94.7656 18.1699 94.668 18.1543 94.5781 18.123C94.4883 18.0918 94.4102 18.043 94.3438 17.9766C94.2773 17.9102 94.2246 17.8262 94.1855 17.7246C94.1465 17.6191 94.127 17.4941 94.127 17.3496ZM99.9688 18.1172C99.5742 18.1172 99.2051 18.0566 98.8613 17.9355C98.5176 17.8105 98.2188 17.6152 97.9648 17.3496C97.7109 17.0801 97.5117 16.7383 97.3672 16.3242C97.2227 15.9062 97.1504 15.4043 97.1504 14.8184C97.1504 14.2051 97.2246 13.6855 97.373 13.2598C97.5215 12.8301 97.7246 12.4824 97.9824 12.2168C98.2441 11.9473 98.5488 11.752 98.8965 11.6309C99.2441 11.5098 99.6172 11.4492 100.016 11.4492C100.32 11.4492 100.617 11.4824 100.906 11.5488C101.199 11.6152 101.443 11.6973 101.639 11.7949L101.322 12.6973C101.232 12.6582 101.133 12.6211 101.023 12.5859C100.914 12.5469 100.801 12.5137 100.684 12.4863C100.566 12.4551 100.451 12.4316 100.338 12.416C100.225 12.3965 100.117 12.3867 100.016 12.3867C99.4023 12.3867 98.9551 12.584 98.6738 12.9785C98.3926 13.3691 98.252 13.9785 98.252 14.8066C98.252 15.6309 98.3926 16.2344 98.6738 16.6172C98.959 16.9961 99.3906 17.1855 99.9688 17.1855C100.285 17.1855 100.57 17.1504 100.824 17.0801C101.082 17.0059 101.316 16.9199 101.527 16.8223V17.7715C101.316 17.8848 101.09 17.9707 100.848 18.0293C100.609 18.0879 100.316 18.1172 99.9688 18.1172ZM108.307 14.7715C108.307 15.3066 108.24 15.7832 108.107 16.2012C107.979 16.6152 107.791 16.9648 107.545 17.25C107.303 17.5312 107.008 17.7461 106.66 17.8945C106.312 18.043 105.922 18.1172 105.488 18.1172C105.086 18.1172 104.715 18.043 104.375 17.8945C104.035 17.7461 103.74 17.5312 103.49 17.25C103.244 16.9648 103.051 16.6152 102.91 16.2012C102.773 15.7832 102.705 15.3066 102.705 14.7715C102.705 14.2402 102.77 13.7695 102.898 13.3594C103.031 12.9453 103.219 12.5977 103.461 12.3164C103.703 12.0312 103.998 11.8164 104.346 11.6719C104.697 11.5234 105.09 11.4492 105.523 11.4492C105.926 11.4492 106.297 11.5234 106.637 11.6719C106.977 11.8164 107.27 12.0312 107.516 12.3164C107.766 12.5977 107.959 12.9453 108.096 13.3594C108.236 13.7695 108.307 14.2402 108.307 14.7715ZM103.807 14.7715C103.807 15.5879 103.939 16.2031 104.205 16.6172C104.475 17.0273 104.91 17.2324 105.512 17.2324C106.113 17.2324 106.545 17.0273 106.807 16.6172C107.072 16.2031 107.205 15.5879 107.205 14.7715C107.205 13.9551 107.07 13.3457 106.801 12.9434C106.535 12.5371 106.102 12.334 105.5 12.334C104.898 12.334 104.465 12.5371 104.199 12.9434C103.938 13.3457 103.807 13.9551 103.807 14.7715ZM115.232 14.7715C115.232 15.3066 115.166 15.7832 115.033 16.2012C114.904 16.6152 114.717 16.9648 114.471 17.25C114.229 17.5312 113.934 17.7461 113.586 17.8945C113.238 18.043 112.848 18.1172 112.414 18.1172C112.012 18.1172 111.641 18.043 111.301 17.8945C110.961 17.7461 110.666 17.5312 110.416 17.25C110.17 16.9648 109.977 16.6152 109.836 16.2012C109.699 15.7832 109.631 15.3066 109.631 14.7715C109.631 14.2402 109.695 13.7695 109.824 13.3594C109.957 12.9453 110.145 12.5977 110.387 12.3164C110.629 12.0312 110.924 11.8164 111.271 11.6719C111.623 11.5234 112.016 11.4492 112.449 11.4492C112.852 11.4492 113.223 11.5234 113.562 11.6719C113.902 11.8164 114.195 12.0312 114.441 12.3164C114.691 12.5977 114.885 12.9453 115.021 13.3594C115.162 13.7695 115.232 14.2402 115.232 14.7715ZM110.732 14.7715C110.732 15.5879 110.865 16.2031 111.131 16.6172C111.4 17.0273 111.836 17.2324 112.438 17.2324C113.039 17.2324 113.471 17.0273 113.732 16.6172C113.998 16.2031 114.131 15.5879 114.131 14.7715C114.131 13.9551 113.996 13.3457 113.727 12.9434C113.461 12.5371 113.027 12.334 112.426 12.334C111.824 12.334 111.391 12.5371 111.125 12.9434C110.863 13.3457 110.732 13.9551 110.732 14.7715ZM117.98 18H116.914V8.88281H117.98V18Z" fill="black" fill-opacity="0.85"/>
<path d="M292.429 9.75625C292.609 9.20365 293.39 9.20365 293.57 9.75625L294.212 11.7314C294.251 11.8517 294.327 11.9566 294.43 12.0309C294.532 12.1053 294.655 12.1454 294.782 12.1454H296.859C297.44 12.1454 297.682 12.8894 297.212 13.2314L295.532 14.4518C295.429 14.5263 295.353 14.6313 295.314 14.7518C295.274 14.8723 295.274 15.0021 295.313 15.1226L295.955 17.0978C296.135 17.6504 295.502 18.1106 295.031 17.7686L293.351 16.5482C293.249 16.4738 293.126 16.4338 292.999 16.4338C292.872 16.4338 292.749 16.4738 292.646 16.5482L290.966 17.7686C290.496 18.1106 289.864 17.6504 290.043 17.0978L290.685 15.1226C290.724 15.0021 290.724 14.8723 290.685 14.7518C290.646 14.6313 290.569 14.5263 290.467 14.4518L288.787 13.232C288.317 12.89 288.559 12.146 289.14 12.146H291.217C291.343 12.1461 291.467 12.106 291.569 12.0317C291.672 11.9573 291.748 11.8524 291.787 11.732L292.429 9.75685L292.429 9.75625Z" fill="#4F46E5"/>
</svg>
